# xmcd
#
# Track frame offsets:
#	150
#	13726
#	34801
#	52943
#	73175
#	91142
#	105917
#	124173
#	139689
#	161972
#	182542
#	197814
#	211346
#	223461
#	241751
#
# Disc length: 3374 seconds
#
# Revision: 1
# Processed by: cddbd v1.5.2PL0 Copyright (c) Steve Scherf et al.
# Submitted via: audiograbber 1.83.01
#
DISCID=d60d2c0f
DTITLE=Various Artist - More Best Country Hits of Today
DYEAR=2006
DGENRE=Country
TTITLE0=Texas Lightning (covered from) - No no never
TTITLE1=Bon Jovi (covered from) - Who say you can't go Home
TTITLE2=Carry Underwood (covered from) - Don't forget to remember me
TTITLE3=Rascal Flatts (covered from) - Life is a Highway
TTITLE4=Dixie Chicks (covered from) - Not ready to make nice
TTITLE5=Kenny Chesney (covered from) - Summertime
TTITLE6=Brad Paisley (covered from) - The World
TTITLE7=Tim McGraw (covered from) - When the Stars go blue
TTITLE8=Brooks and Dunn (covered from) - Believe
TTITLE9=Little BigTown (covered from) - Boondocks
TTITLE10=Sara Evans (covered from) - Cheatin'
TTITLE11=Toby Keith (covered from) - Get drunk and be somebody
TTITLE12=Gretchen Wilson (covered from) - I don't feel like loving you today
TTITLE13=Billy Currington (covered from) - Must be doing something right
TTITLE14=Soundtrack (covered from) - Theme from 'Brokeback Mountain'
EXTD=Not Original Artists!\nPerformed by the Cream of the best Singers and Musi
EXTD=cians from Nashville, Tennessee
EXTT0=
EXTT1=
EXTT2=
EXTT3=
EXTT4=
EXTT5=
EXTT6=
EXTT7=
EXTT8=
EXTT9=
EXTT10=
EXTT11=
EXTT12=
EXTT13=
EXTT14=
PLAYORDER=
